<mxfile host="app.diagrams.net" agent="Mozilla/5.0 (Windows NT 10.0; Win64; x64) AppleWebKit/537.36 (KHTML, like Gecko) Chrome/128.0.0.0 Safari/537.36" version="24.7.10">
  <diagram name="Page-1" id="c4acf3e9-155e-7222-9cf6-157b1a14988f">
    <mxGraphModel dx="2049" dy="1063" grid="1" gridSize="10" guides="1" tooltips="1" connect="1" arrows="1" fold="1" page="1" pageScale="1" pageWidth="850" pageHeight="1100" background="none" math="0" shadow="0">
      <root>
        <mxCell id="0" />
        <mxCell id="1" parent="0" />
        <mxCell id="64kxyHR5EpvboNupBZXj-3" value="Cash In" style="ellipse;whiteSpace=wrap;html=1;" vertex="1" parent="1">
          <mxGeometry x="500" y="540" width="220" height="70" as="geometry" />
        </mxCell>
        <mxCell id="64kxyHR5EpvboNupBZXj-4" value="Gcash App" style="shape=ellipse;html=1;strokeWidth=3;fontStyle=1;whiteSpace=wrap;align=center;perimeter=ellipsePerimeter;" vertex="1" parent="1">
          <mxGeometry x="205" y="200" width="220" height="60" as="geometry" />
        </mxCell>
        <mxCell id="64kxyHR5EpvboNupBZXj-5" value="Cash Out" style="ellipse;whiteSpace=wrap;html=1;" vertex="1" parent="1">
          <mxGeometry x="500" y="640" width="220" height="70" as="geometry" />
        </mxCell>
        <mxCell id="64kxyHR5EpvboNupBZXj-6" value="Check Balance" style="ellipse;whiteSpace=wrap;html=1;" vertex="1" parent="1">
          <mxGeometry x="500" y="440" width="220" height="70" as="geometry" />
        </mxCell>
        <mxCell id="64kxyHR5EpvboNupBZXj-7" value="Transfer Funds" style="ellipse;whiteSpace=wrap;html=1;" vertex="1" parent="1">
          <mxGeometry x="500" y="740" width="220" height="70" as="geometry" />
        </mxCell>
        <mxCell id="64kxyHR5EpvboNupBZXj-9" value="Creation of Account with PIN" style="ellipse;whiteSpace=wrap;html=1;" vertex="1" parent="1">
          <mxGeometry x="205" y="320" width="220" height="70" as="geometry" />
        </mxCell>
        <mxCell id="64kxyHR5EpvboNupBZXj-10" value="Log In" style="ellipse;whiteSpace=wrap;html=1;" vertex="1" parent="1">
          <mxGeometry x="205" y="440" width="220" height="70" as="geometry" />
        </mxCell>
        <mxCell id="64kxyHR5EpvboNupBZXj-26" style="edgeStyle=orthogonalEdgeStyle;rounded=0;orthogonalLoop=1;jettySize=auto;html=1;exitX=0.5;exitY=1;exitDx=0;exitDy=0;" edge="1" parent="1" source="64kxyHR5EpvboNupBZXj-15">
          <mxGeometry relative="1" as="geometry">
            <mxPoint x="315.2105263157896" y="630" as="targetPoint" />
          </mxGeometry>
        </mxCell>
        <mxCell id="64kxyHR5EpvboNupBZXj-15" value="Gcash Transaction" style="ellipse;whiteSpace=wrap;html=1;" vertex="1" parent="1">
          <mxGeometry x="205" y="560" width="220" height="70" as="geometry" />
        </mxCell>
        <mxCell id="64kxyHR5EpvboNupBZXj-17" value="App Help" style="ellipse;whiteSpace=wrap;html=1;" vertex="1" parent="1">
          <mxGeometry x="205" y="690" width="220" height="70" as="geometry" />
        </mxCell>
        <mxCell id="64kxyHR5EpvboNupBZXj-18" value="Customer" style="shape=umlActor;verticalLabelPosition=bottom;verticalAlign=top;html=1;outlineConnect=0;" vertex="1" parent="1">
          <mxGeometry x="50" y="540" width="40" height="90" as="geometry" />
        </mxCell>
        <mxCell id="64kxyHR5EpvboNupBZXj-20" value="Customer Authentication Using PIN" style="ellipse;whiteSpace=wrap;html=1;" vertex="1" parent="1">
          <mxGeometry x="790" y="590" width="220" height="70" as="geometry" />
        </mxCell>
        <mxCell id="64kxyHR5EpvboNupBZXj-21" value="Gcash Software Engineers" style="shape=umlActor;verticalLabelPosition=bottom;verticalAlign=top;html=1;outlineConnect=0;" vertex="1" parent="1">
          <mxGeometry x="920" y="185" width="40" height="90" as="geometry" />
        </mxCell>
        <mxCell id="64kxyHR5EpvboNupBZXj-22" value="Maintenance" style="ellipse;whiteSpace=wrap;html=1;" vertex="1" parent="1">
          <mxGeometry x="500" y="60" width="220" height="70" as="geometry" />
        </mxCell>
        <mxCell id="64kxyHR5EpvboNupBZXj-23" value="Bug Fixes" style="ellipse;whiteSpace=wrap;html=1;" vertex="1" parent="1">
          <mxGeometry x="500" y="150" width="220" height="70" as="geometry" />
        </mxCell>
        <mxCell id="64kxyHR5EpvboNupBZXj-24" value="Software Updates" style="ellipse;whiteSpace=wrap;html=1;" vertex="1" parent="1">
          <mxGeometry x="500" y="240" width="220" height="70" as="geometry" />
        </mxCell>
        <mxCell id="64kxyHR5EpvboNupBZXj-25" value="Diagnostics" style="ellipse;whiteSpace=wrap;html=1;" vertex="1" parent="1">
          <mxGeometry x="500" y="330" width="220" height="70" as="geometry" />
        </mxCell>
        <mxCell id="64kxyHR5EpvboNupBZXj-27" value="Menu" style="edgeStyle=none;html=1;startArrow=open;endArrow=none;startSize=12;verticalAlign=bottom;dashed=1;labelBackgroundColor=none;rounded=0;entryX=0.5;entryY=1;entryDx=0;entryDy=0;exitX=0.5;exitY=0;exitDx=0;exitDy=0;" edge="1" parent="1" source="64kxyHR5EpvboNupBZXj-17" target="64kxyHR5EpvboNupBZXj-15">
          <mxGeometry width="160" relative="1" as="geometry">
            <mxPoint x="770" y="430" as="sourcePoint" />
            <mxPoint x="930" y="430" as="targetPoint" />
          </mxGeometry>
        </mxCell>
        <mxCell id="64kxyHR5EpvboNupBZXj-28" value="" style="edgeStyle=none;html=1;endArrow=none;verticalAlign=bottom;rounded=0;exitX=0.5;exitY=0.5;exitDx=0;exitDy=0;exitPerimeter=0;entryX=0;entryY=0.5;entryDx=0;entryDy=0;" edge="1" parent="1" source="64kxyHR5EpvboNupBZXj-18" target="64kxyHR5EpvboNupBZXj-4">
          <mxGeometry width="160" relative="1" as="geometry">
            <mxPoint x="130" y="420" as="sourcePoint" />
            <mxPoint x="290" y="420" as="targetPoint" />
          </mxGeometry>
        </mxCell>
        <mxCell id="64kxyHR5EpvboNupBZXj-29" value="" style="edgeStyle=none;html=1;endArrow=none;verticalAlign=bottom;rounded=0;exitX=0.5;exitY=0.5;exitDx=0;exitDy=0;exitPerimeter=0;entryX=0;entryY=0.5;entryDx=0;entryDy=0;" edge="1" parent="1" source="64kxyHR5EpvboNupBZXj-18" target="64kxyHR5EpvboNupBZXj-9">
          <mxGeometry width="160" relative="1" as="geometry">
            <mxPoint x="80" y="595" as="sourcePoint" />
            <mxPoint x="215" y="240" as="targetPoint" />
          </mxGeometry>
        </mxCell>
        <mxCell id="64kxyHR5EpvboNupBZXj-30" value="" style="edgeStyle=none;html=1;endArrow=none;verticalAlign=bottom;rounded=0;exitX=0.5;exitY=0.5;exitDx=0;exitDy=0;exitPerimeter=0;entryX=0;entryY=0.5;entryDx=0;entryDy=0;" edge="1" parent="1" source="64kxyHR5EpvboNupBZXj-18" target="64kxyHR5EpvboNupBZXj-10">
          <mxGeometry width="160" relative="1" as="geometry">
            <mxPoint x="90" y="605" as="sourcePoint" />
            <mxPoint x="225" y="250" as="targetPoint" />
          </mxGeometry>
        </mxCell>
        <mxCell id="64kxyHR5EpvboNupBZXj-31" value="" style="edgeStyle=none;html=1;endArrow=none;verticalAlign=bottom;rounded=0;exitX=0.5;exitY=0.5;exitDx=0;exitDy=0;exitPerimeter=0;entryX=0;entryY=0.5;entryDx=0;entryDy=0;" edge="1" parent="1" source="64kxyHR5EpvboNupBZXj-18" target="64kxyHR5EpvboNupBZXj-15">
          <mxGeometry width="160" relative="1" as="geometry">
            <mxPoint x="100" y="615" as="sourcePoint" />
            <mxPoint x="235" y="260" as="targetPoint" />
          </mxGeometry>
        </mxCell>
        <mxCell id="64kxyHR5EpvboNupBZXj-33" value="" style="edgeStyle=none;html=1;endArrow=none;verticalAlign=bottom;rounded=0;exitX=1;exitY=0.5;exitDx=0;exitDy=0;entryX=0;entryY=0.5;entryDx=0;entryDy=0;" edge="1" parent="1" source="64kxyHR5EpvboNupBZXj-15" target="64kxyHR5EpvboNupBZXj-7">
          <mxGeometry width="160" relative="1" as="geometry">
            <mxPoint x="120" y="635" as="sourcePoint" />
            <mxPoint x="255" y="280" as="targetPoint" />
          </mxGeometry>
        </mxCell>
        <mxCell id="64kxyHR5EpvboNupBZXj-34" value="" style="edgeStyle=none;html=1;endArrow=none;verticalAlign=bottom;rounded=0;exitX=1;exitY=0.5;exitDx=0;exitDy=0;entryX=0;entryY=0.5;entryDx=0;entryDy=0;" edge="1" parent="1" source="64kxyHR5EpvboNupBZXj-15" target="64kxyHR5EpvboNupBZXj-5">
          <mxGeometry width="160" relative="1" as="geometry">
            <mxPoint x="435" y="605" as="sourcePoint" />
            <mxPoint x="790" y="755" as="targetPoint" />
          </mxGeometry>
        </mxCell>
        <mxCell id="64kxyHR5EpvboNupBZXj-35" value="" style="edgeStyle=none;html=1;endArrow=none;verticalAlign=bottom;rounded=0;exitX=1;exitY=0.5;exitDx=0;exitDy=0;entryX=0;entryY=0.5;entryDx=0;entryDy=0;" edge="1" parent="1" source="64kxyHR5EpvboNupBZXj-15" target="64kxyHR5EpvboNupBZXj-3">
          <mxGeometry width="160" relative="1" as="geometry">
            <mxPoint x="445" y="615" as="sourcePoint" />
            <mxPoint x="800" y="765" as="targetPoint" />
          </mxGeometry>
        </mxCell>
        <mxCell id="64kxyHR5EpvboNupBZXj-36" value="" style="edgeStyle=none;html=1;endArrow=none;verticalAlign=bottom;rounded=0;exitX=1;exitY=0.5;exitDx=0;exitDy=0;entryX=0;entryY=0.5;entryDx=0;entryDy=0;" edge="1" parent="1" source="64kxyHR5EpvboNupBZXj-15" target="64kxyHR5EpvboNupBZXj-6">
          <mxGeometry width="160" relative="1" as="geometry">
            <mxPoint x="435" y="605" as="sourcePoint" />
            <mxPoint x="790" y="555" as="targetPoint" />
          </mxGeometry>
        </mxCell>
        <mxCell id="64kxyHR5EpvboNupBZXj-38" value="" style="edgeStyle=none;html=1;endArrow=none;verticalAlign=bottom;rounded=0;exitX=1;exitY=0.5;exitDx=0;exitDy=0;entryX=0;entryY=0.5;entryDx=0;entryDy=0;" edge="1" parent="1" source="64kxyHR5EpvboNupBZXj-6" target="64kxyHR5EpvboNupBZXj-20">
          <mxGeometry width="160" relative="1" as="geometry">
            <mxPoint x="435" y="605" as="sourcePoint" />
            <mxPoint x="510" y="685" as="targetPoint" />
          </mxGeometry>
        </mxCell>
        <mxCell id="64kxyHR5EpvboNupBZXj-39" value="" style="edgeStyle=none;html=1;endArrow=none;verticalAlign=bottom;rounded=0;exitX=1;exitY=0.5;exitDx=0;exitDy=0;entryX=0;entryY=0.5;entryDx=0;entryDy=0;" edge="1" parent="1" source="64kxyHR5EpvboNupBZXj-3" target="64kxyHR5EpvboNupBZXj-20">
          <mxGeometry width="160" relative="1" as="geometry">
            <mxPoint x="445" y="615" as="sourcePoint" />
            <mxPoint x="520" y="695" as="targetPoint" />
          </mxGeometry>
        </mxCell>
        <mxCell id="64kxyHR5EpvboNupBZXj-40" value="" style="edgeStyle=none;html=1;endArrow=none;verticalAlign=bottom;rounded=0;exitX=1;exitY=0.5;exitDx=0;exitDy=0;entryX=0;entryY=0.5;entryDx=0;entryDy=0;" edge="1" parent="1" source="64kxyHR5EpvboNupBZXj-5" target="64kxyHR5EpvboNupBZXj-20">
          <mxGeometry width="160" relative="1" as="geometry">
            <mxPoint x="730" y="585" as="sourcePoint" />
            <mxPoint x="770" y="630" as="targetPoint" />
          </mxGeometry>
        </mxCell>
        <mxCell id="64kxyHR5EpvboNupBZXj-41" value="" style="edgeStyle=none;html=1;endArrow=none;verticalAlign=bottom;rounded=0;exitX=1;exitY=0.5;exitDx=0;exitDy=0;entryX=0;entryY=0.5;entryDx=0;entryDy=0;" edge="1" parent="1" source="64kxyHR5EpvboNupBZXj-7" target="64kxyHR5EpvboNupBZXj-20">
          <mxGeometry width="160" relative="1" as="geometry">
            <mxPoint x="740" y="595" as="sourcePoint" />
            <mxPoint x="810" y="645" as="targetPoint" />
          </mxGeometry>
        </mxCell>
        <mxCell id="64kxyHR5EpvboNupBZXj-42" value="" style="edgeStyle=none;html=1;endArrow=none;verticalAlign=bottom;rounded=0;exitX=1;exitY=0.5;exitDx=0;exitDy=0;entryX=0;entryY=0.5;entryDx=0;entryDy=0;" edge="1" parent="1" source="64kxyHR5EpvboNupBZXj-4" target="64kxyHR5EpvboNupBZXj-22">
          <mxGeometry width="160" relative="1" as="geometry">
            <mxPoint x="720" y="330" as="sourcePoint" />
            <mxPoint x="880" y="330" as="targetPoint" />
          </mxGeometry>
        </mxCell>
        <mxCell id="64kxyHR5EpvboNupBZXj-43" value="" style="edgeStyle=none;html=1;endArrow=none;verticalAlign=bottom;rounded=0;exitX=1;exitY=0.5;exitDx=0;exitDy=0;entryX=0;entryY=0.5;entryDx=0;entryDy=0;" edge="1" parent="1" source="64kxyHR5EpvboNupBZXj-4" target="64kxyHR5EpvboNupBZXj-23">
          <mxGeometry width="160" relative="1" as="geometry">
            <mxPoint x="435" y="240" as="sourcePoint" />
            <mxPoint x="510" y="105" as="targetPoint" />
          </mxGeometry>
        </mxCell>
        <mxCell id="64kxyHR5EpvboNupBZXj-44" value="" style="edgeStyle=none;html=1;endArrow=none;verticalAlign=bottom;rounded=0;exitX=1;exitY=0.5;exitDx=0;exitDy=0;entryX=0;entryY=0.5;entryDx=0;entryDy=0;" edge="1" parent="1" source="64kxyHR5EpvboNupBZXj-4" target="64kxyHR5EpvboNupBZXj-24">
          <mxGeometry width="160" relative="1" as="geometry">
            <mxPoint x="445" y="250" as="sourcePoint" />
            <mxPoint x="520" y="115" as="targetPoint" />
          </mxGeometry>
        </mxCell>
        <mxCell id="64kxyHR5EpvboNupBZXj-45" value="" style="edgeStyle=none;html=1;endArrow=none;verticalAlign=bottom;rounded=0;exitX=1;exitY=0.5;exitDx=0;exitDy=0;entryX=0;entryY=0.5;entryDx=0;entryDy=0;" edge="1" parent="1" source="64kxyHR5EpvboNupBZXj-4" target="64kxyHR5EpvboNupBZXj-25">
          <mxGeometry width="160" relative="1" as="geometry">
            <mxPoint x="455" y="260" as="sourcePoint" />
            <mxPoint x="530" y="125" as="targetPoint" />
          </mxGeometry>
        </mxCell>
        <mxCell id="64kxyHR5EpvboNupBZXj-46" value="" style="edgeStyle=none;html=1;endArrow=none;verticalAlign=bottom;rounded=0;exitX=0.5;exitY=0.5;exitDx=0;exitDy=0;entryX=1;entryY=0.5;entryDx=0;entryDy=0;exitPerimeter=0;" edge="1" parent="1" source="64kxyHR5EpvboNupBZXj-21" target="64kxyHR5EpvboNupBZXj-22">
          <mxGeometry width="160" relative="1" as="geometry">
            <mxPoint x="465" y="270" as="sourcePoint" />
            <mxPoint x="540" y="135" as="targetPoint" />
          </mxGeometry>
        </mxCell>
        <mxCell id="64kxyHR5EpvboNupBZXj-47" value="" style="edgeStyle=none;html=1;endArrow=none;verticalAlign=bottom;rounded=0;entryX=1;entryY=0.5;entryDx=0;entryDy=0;exitX=0.5;exitY=0.5;exitDx=0;exitDy=0;exitPerimeter=0;" edge="1" parent="1" source="64kxyHR5EpvboNupBZXj-21" target="64kxyHR5EpvboNupBZXj-23">
          <mxGeometry width="160" relative="1" as="geometry">
            <mxPoint x="475" y="280" as="sourcePoint" />
            <mxPoint x="550" y="145" as="targetPoint" />
          </mxGeometry>
        </mxCell>
        <mxCell id="64kxyHR5EpvboNupBZXj-48" value="" style="edgeStyle=none;html=1;endArrow=none;verticalAlign=bottom;rounded=0;exitX=1;exitY=0.5;exitDx=0;exitDy=0;entryX=0.5;entryY=0.5;entryDx=0;entryDy=0;entryPerimeter=0;" edge="1" parent="1" source="64kxyHR5EpvboNupBZXj-24" target="64kxyHR5EpvboNupBZXj-21">
          <mxGeometry width="160" relative="1" as="geometry">
            <mxPoint x="485" y="290" as="sourcePoint" />
            <mxPoint x="560" y="155" as="targetPoint" />
          </mxGeometry>
        </mxCell>
        <mxCell id="64kxyHR5EpvboNupBZXj-49" value="" style="edgeStyle=none;html=1;endArrow=none;verticalAlign=bottom;rounded=0;exitX=0.5;exitY=0.5;exitDx=0;exitDy=0;entryX=1;entryY=0.5;entryDx=0;entryDy=0;exitPerimeter=0;" edge="1" parent="1" source="64kxyHR5EpvboNupBZXj-21" target="64kxyHR5EpvboNupBZXj-25">
          <mxGeometry width="160" relative="1" as="geometry">
            <mxPoint x="495" y="300" as="sourcePoint" />
            <mxPoint x="570" y="165" as="targetPoint" />
          </mxGeometry>
        </mxCell>
        <mxCell id="64kxyHR5EpvboNupBZXj-50" value="Log Out" style="ellipse;whiteSpace=wrap;html=1;" vertex="1" parent="1">
          <mxGeometry x="205" y="790" width="220" height="70" as="geometry" />
        </mxCell>
        <mxCell id="64kxyHR5EpvboNupBZXj-51" value="" style="edgeStyle=none;html=1;endArrow=none;verticalAlign=bottom;rounded=0;exitX=0.5;exitY=0.5;exitDx=0;exitDy=0;exitPerimeter=0;entryX=0;entryY=0.5;entryDx=0;entryDy=0;" edge="1" parent="1" source="64kxyHR5EpvboNupBZXj-18" target="64kxyHR5EpvboNupBZXj-50">
          <mxGeometry width="160" relative="1" as="geometry">
            <mxPoint x="80" y="595" as="sourcePoint" />
            <mxPoint x="215" y="605" as="targetPoint" />
          </mxGeometry>
        </mxCell>
      </root>
    </mxGraphModel>
  </diagram>
</mxfile>
